<svg xmlns="http://www.w3.org/2000/svg" xmlns:xlink="http://www.w3.org/1999/xlink" width="500" zoomAndPan="magnify" viewBox="0 0 375 374.999991" height="500" preserveAspectRatio="xMidYMid meet" version="1.0"><defs><clipPath id="7e08ba1e69"><path d="M 0 55.546875 L 375 55.546875 L 375 319.546875 L 0 319.546875 Z M 0 55.546875 " clip-rule="nonzero"/></clipPath><clipPath id="402930fff1"><path d="M 53.09375 144.113281 L 321.90625 144.113281 L 321.90625 256.613281 L 53.09375 256.613281 Z M 53.09375 144.113281 " clip-rule="nonzero"/></clipPath><clipPath id="22054f62df"><path d="M 70.34375 144.113281 L 304.65625 144.113281 C 309.230469 144.113281 313.617188 145.929688 316.851562 149.164062 C 320.085938 152.398438 321.90625 156.785156 321.90625 161.363281 L 321.90625 239.363281 C 321.90625 243.9375 320.085938 248.324219 316.851562 251.558594 C 313.617188 254.792969 309.230469 256.613281 304.65625 256.613281 L 70.34375 256.613281 C 65.769531 256.613281 61.382812 254.792969 58.148438 251.558594 C 54.914062 248.324219 53.09375 243.9375 53.09375 239.363281 L 53.09375 161.363281 C 53.09375 156.785156 54.914062 152.398438 58.148438 149.164062 C 61.382812 145.929688 65.769531 144.113281 70.34375 144.113281 Z M 70.34375 144.113281 " clip-rule="nonzero"/></clipPath><clipPath id="ecc875a629"><path d="M 103.082031 146.113281 L 271.765625 146.113281 L 271.765625 259.121094 L 103.082031 259.121094 Z M 103.082031 146.113281 " clip-rule="nonzero"/></clipPath></defs><g clip-path="url(#7e08ba1e69)"><path fill="#58a6f6" d="M 10.246094 55.671875 L 364.753906 55.671875 C 370.363281 55.671875 375 60.230469 375 65.914062 L 375 309.085938 C 375 314.695312 370.4375 319.328125 364.753906 319.328125 L 10.246094 319.328125 C 4.636719 319.328125 0 314.769531 0 309.085938 L 0 65.914062 C 0 60.230469 4.5625 55.671875 10.246094 55.671875 Z M 10.246094 55.671875 " fill-opacity="1" fill-rule="nonzero"/></g><path fill="#282828" d="M 19.441406 110.855469 L 356.605469 110.855469 C 359.445312 110.855469 361.691406 113.171875 361.691406 115.941406 L 361.691406 294.726562 C 361.691406 297.570312 359.371094 299.8125 356.605469 299.8125 L 19.441406 299.8125 C 16.601562 299.8125 14.355469 297.496094 14.355469 294.726562 L 14.355469 115.941406 C 14.28125 113.097656 16.601562 110.855469 19.441406 110.855469 Z M 19.441406 110.855469 " fill-opacity="1" fill-rule="nonzero"/><path fill="#02ff76" d="M 158.972656 192.660156 L 109.921875 214.269531 L 109.921875 200.136719 L 143.496094 186.675781 L 143.046875 187.425781 L 143.046875 185.707031 L 143.496094 186.453125 L 109.921875 172.992188 L 109.921875 158.859375 L 158.972656 180.472656 Z M 221.410156 215.015625 L 221.410156 226.234375 L 174.601562 226.234375 L 174.601562 215.015625 Z M 221.410156 215.015625 " fill-opacity="1" fill-rule="nonzero"/><path fill="#385dcb" d="M 32.675781 84.308594 C 32.675781 84.914062 32.617188 85.511719 32.5 86.105469 C 32.382812 86.695312 32.207031 87.269531 31.976562 87.828125 C 31.746094 88.386719 31.460938 88.917969 31.125 89.417969 C 30.792969 89.921875 30.410156 90.386719 29.984375 90.8125 C 29.554688 91.238281 29.089844 91.621094 28.589844 91.957031 C 28.085938 92.292969 27.558594 92.574219 27 92.808594 C 26.441406 93.039062 25.867188 93.210938 25.273438 93.332031 C 24.679688 93.449219 24.082031 93.507812 23.480469 93.507812 C 22.875 93.507812 22.277344 93.449219 21.683594 93.332031 C 21.09375 93.210938 20.519531 93.039062 19.960938 92.808594 C 19.402344 92.574219 18.871094 92.292969 18.371094 91.957031 C 17.867188 91.621094 17.402344 91.238281 16.976562 90.8125 C 16.550781 90.386719 16.167969 89.921875 15.832031 89.417969 C 15.496094 88.917969 15.214844 88.386719 14.980469 87.828125 C 14.75 87.269531 14.578125 86.695312 14.457031 86.105469 C 14.339844 85.511719 14.28125 84.914062 14.28125 84.308594 C 14.28125 83.707031 14.339844 83.109375 14.457031 82.515625 C 14.578125 81.921875 14.75 81.347656 14.980469 80.789062 C 15.214844 80.230469 15.496094 79.703125 15.832031 79.199219 C 16.167969 78.699219 16.550781 78.234375 16.976562 77.804688 C 17.402344 77.378906 17.867188 76.996094 18.371094 76.664062 C 18.871094 76.328125 19.402344 76.042969 19.960938 75.8125 C 20.519531 75.582031 21.09375 75.40625 21.683594 75.289062 C 22.277344 75.171875 22.875 75.113281 23.480469 75.113281 C 24.082031 75.113281 24.679688 75.171875 25.273438 75.289062 C 25.867188 75.40625 26.441406 75.582031 27 75.8125 C 27.558594 76.042969 28.085938 76.328125 28.589844 76.664062 C 29.089844 76.996094 29.554688 77.378906 29.984375 77.804688 C 30.410156 78.234375 30.792969 78.699219 31.125 79.199219 C 31.460938 79.703125 31.746094 80.230469 31.976562 80.789062 C 32.207031 81.347656 32.382812 81.921875 32.5 82.515625 C 32.617188 83.109375 32.675781 83.707031 32.675781 84.308594 Z M 32.675781 84.308594 " fill-opacity="1" fill-rule="nonzero"/><path fill="#385dcb" d="M 67.449219 84.308594 C 67.449219 84.914062 67.390625 85.511719 67.269531 86.105469 C 67.152344 86.695312 66.980469 87.269531 66.746094 87.828125 C 66.515625 88.386719 66.234375 88.917969 65.898438 89.417969 C 65.5625 89.921875 65.179688 90.386719 64.753906 90.8125 C 64.328125 91.238281 63.863281 91.621094 63.359375 91.957031 C 62.859375 92.292969 62.328125 92.574219 61.769531 92.808594 C 61.210938 93.039062 60.636719 93.210938 60.042969 93.332031 C 59.453125 93.449219 58.855469 93.507812 58.25 93.507812 C 57.644531 93.507812 57.046875 93.449219 56.457031 93.332031 C 55.863281 93.210938 55.289062 93.039062 54.730469 92.808594 C 54.171875 92.574219 53.640625 92.292969 53.140625 91.957031 C 52.636719 91.621094 52.171875 91.238281 51.746094 90.8125 C 51.320312 90.386719 50.9375 89.921875 50.601562 89.417969 C 50.265625 88.917969 49.984375 88.386719 49.753906 87.828125 C 49.523438 87.269531 49.347656 86.695312 49.230469 86.105469 C 49.113281 85.511719 49.054688 84.914062 49.054688 84.308594 C 49.054688 83.707031 49.113281 83.109375 49.230469 82.515625 C 49.347656 81.921875 49.523438 81.347656 49.753906 80.789062 C 49.984375 80.230469 50.265625 79.703125 50.601562 79.199219 C 50.9375 78.699219 51.320312 78.234375 51.746094 77.804688 C 52.171875 77.378906 52.636719 76.996094 53.140625 76.664062 C 53.640625 76.328125 54.171875 76.042969 54.730469 75.8125 C 55.289062 75.582031 55.863281 75.40625 56.457031 75.289062 C 57.046875 75.171875 57.644531 75.113281 58.25 75.113281 C 58.855469 75.113281 59.453125 75.171875 60.042969 75.289062 C 60.636719 75.40625 61.210938 75.582031 61.769531 75.8125 C 62.328125 76.042969 62.859375 76.328125 63.359375 76.664062 C 63.863281 76.996094 64.328125 77.378906 64.753906 77.804688 C 65.179688 78.234375 65.5625 78.699219 65.898438 79.199219 C 66.234375 79.703125 66.515625 80.230469 66.746094 80.789062 C 66.980469 81.347656 67.152344 81.921875 67.269531 82.515625 C 67.390625 83.109375 67.449219 83.707031 67.449219 84.308594 Z M 67.449219 84.308594 " fill-opacity="1" fill-rule="nonzero"/><path fill="#385dcb" d="M 102.144531 84.308594 C 102.144531 84.914062 102.085938 85.511719 101.96875 86.105469 C 101.847656 86.695312 101.675781 87.269531 101.445312 87.828125 C 101.210938 88.386719 100.929688 88.917969 100.59375 89.417969 C 100.257812 89.921875 99.875 90.386719 99.449219 90.8125 C 99.023438 91.238281 98.558594 91.621094 98.054688 91.957031 C 97.554688 92.292969 97.023438 92.574219 96.464844 92.808594 C 95.90625 93.039062 95.332031 93.210938 94.742188 93.332031 C 94.148438 93.449219 93.550781 93.507812 92.945312 93.507812 C 92.34375 93.507812 91.742188 93.449219 91.152344 93.332031 C 90.558594 93.210938 89.984375 93.039062 89.425781 92.808594 C 88.867188 92.574219 88.339844 92.292969 87.835938 91.957031 C 87.335938 91.621094 86.871094 91.238281 86.441406 90.8125 C 86.015625 90.386719 85.632812 89.921875 85.296875 89.417969 C 84.964844 88.917969 84.679688 88.386719 84.449219 87.828125 C 84.21875 87.269531 84.042969 86.695312 83.925781 86.105469 C 83.808594 85.511719 83.75 84.914062 83.75 84.308594 C 83.75 83.707031 83.808594 83.109375 83.925781 82.515625 C 84.042969 81.921875 84.21875 81.347656 84.449219 80.789062 C 84.679688 80.230469 84.964844 79.703125 85.296875 79.199219 C 85.632812 78.699219 86.015625 78.234375 86.441406 77.804688 C 86.871094 77.378906 87.335938 76.996094 87.835938 76.664062 C 88.339844 76.328125 88.867188 76.042969 89.425781 75.8125 C 89.984375 75.582031 90.558594 75.40625 91.152344 75.289062 C 91.742188 75.171875 92.34375 75.113281 92.945312 75.113281 C 93.550781 75.113281 94.148438 75.171875 94.742188 75.289062 C 95.332031 75.40625 95.90625 75.582031 96.464844 75.8125 C 97.023438 76.042969 97.554688 76.328125 98.054688 76.664062 C 98.558594 76.996094 99.023438 77.378906 99.449219 77.804688 C 99.875 78.234375 100.257812 78.699219 100.59375 79.199219 C 100.929688 79.703125 101.210938 80.230469 101.445312 80.789062 C 101.675781 81.347656 101.847656 81.921875 101.96875 82.515625 C 102.085938 83.109375 102.144531 83.707031 102.144531 84.308594 Z M 102.144531 84.308594 " fill-opacity="1" fill-rule="nonzero"/><g clip-path="url(#402930fff1)"><g clip-path="url(#22054f62df)"><path fill="#282828" d="M 53.09375 144.113281 L 321.90625 144.113281 L 321.90625 256.613281 L 53.09375 256.613281 Z M 53.09375 144.113281 " fill-opacity="1" fill-rule="nonzero"/></g></g><g clip-path="url(#ecc875a629)"><path fill="#ef50d1" d="M 116.386719 202.742188 C 118.667969 203.917969 120.667969 205.554688 122.046875 207.832031 C 124.453125 211.808594 124.808594 218.101562 124.808594 222.632812 L 124.808594 236.621094 C 124.808594 239.363281 124.992188 245.167969 126.96875 247.335938 C 128.820312 249.363281 133.019531 249.640625 135.550781 249.640625 C 135.9375 249.640625 136.335938 249.613281 136.722656 249.585938 C 137.195312 249.554688 137.683594 249.523438 138.164062 249.523438 L 139.886719 249.523438 L 139.886719 259.121094 L 135.429688 259.121094 C 130.105469 259.121094 122.683594 258.488281 118.753906 254.398438 C 114.707031 250.1875 114.238281 241.539062 114.238281 236.050781 L 114.238281 221.882812 C 114.238281 218.390625 113.847656 213.191406 111.375 210.453125 C 109.691406 208.585938 107.003906 207.839844 104.597656 207.542969 L 103.082031 207.359375 L 103.082031 198 L 104.597656 197.8125 C 107 197.515625 109.695312 196.777344 111.375 194.90625 C 113.847656 192.15625 114.238281 186.9375 114.238281 183.433594 L 114.238281 169.347656 C 114.238281 163.808594 114.71875 155.214844 118.765625 150.945312 C 122.71875 146.777344 130.035156 146.113281 135.429688 146.113281 L 139.886719 146.113281 L 139.886719 155.714844 L 136.023438 155.714844 C 133.421875 155.714844 128.941406 155.980469 127.019531 158.050781 C 125 160.226562 124.808594 166.007812 124.808594 168.773438 L 124.808594 182.84375 C 124.808594 187.371094 124.449219 193.648438 122.046875 197.625 C 120.667969 199.902344 118.667969 201.550781 116.386719 202.742188 Z M 258.621094 202.742188 C 256.34375 201.550781 254.34375 199.902344 252.964844 197.625 C 250.5625 193.648438 250.203125 187.371094 250.203125 182.84375 L 250.203125 168.773438 C 250.203125 166.007812 250.011719 160.226562 247.992188 158.050781 C 246.070312 155.980469 241.589844 155.714844 238.984375 155.714844 L 235.125 155.714844 L 235.125 146.113281 L 239.578125 146.113281 C 244.976562 146.113281 252.292969 146.777344 256.242188 150.945312 C 260.289062 155.214844 260.773438 163.808594 260.773438 169.347656 L 260.773438 183.433594 C 260.773438 186.9375 261.160156 192.15625 263.636719 194.90625 C 265.3125 196.777344 268.011719 197.515625 270.414062 197.8125 L 271.925781 198 L 271.925781 207.359375 L 270.414062 207.542969 C 268.003906 207.839844 265.316406 208.585938 263.632812 210.453125 C 261.160156 213.191406 260.773438 218.390625 260.773438 221.882812 L 260.773438 236.050781 C 260.773438 241.539062 260.304688 250.1875 256.253906 254.398438 C 252.324219 258.488281 244.90625 259.121094 239.578125 259.121094 L 235.125 259.121094 L 235.125 249.523438 L 236.847656 249.523438 C 237.328125 249.523438 237.8125 249.554688 238.289062 249.585938 C 238.675781 249.613281 239.074219 249.640625 239.460938 249.640625 C 241.992188 249.640625 246.191406 249.363281 248.042969 247.335938 C 250.015625 245.167969 250.203125 239.363281 250.203125 236.621094 L 250.203125 222.632812 C 250.203125 218.101562 250.558594 211.808594 252.964844 207.832031 C 254.34375 205.554688 256.339844 203.917969 258.621094 202.742188 " fill-opacity="1" fill-rule="evenodd"/></g><path fill="#1deb37" d="M 206.644531 224.644531 L 206.644531 215.894531 L 240.914062 215.894531 L 240.914062 224.644531 L 206.644531 224.644531 " fill-opacity="1" fill-rule="evenodd"/><path fill="#00a3ff" d="M 136.300781 202.5625 L 154.769531 214.664062 L 154.769531 226.171875 L 126.234375 206.863281 L 126.234375 198.160156 L 154.769531 179.089844 L 154.769531 190.5625 L 136.300781 202.5625 " fill-opacity="1" fill-rule="evenodd"/><path fill="#1deb37" d="M 204.226562 202.5625 L 185.78125 190.5625 L 185.78125 179.089844 L 214.320312 198.160156 L 214.320312 206.863281 L 185.78125 226.171875 L 185.78125 214.664062 L 204.226562 202.5625 " fill-opacity="1" fill-rule="evenodd"/><path fill="#99734c" d="M 186.601562 167.328125 L 163.933594 240.578125 L 153.953125 237.910156 L 176.621094 164.660156 L 186.601562 167.328125 " fill-opacity="1" fill-rule="evenodd"/></svg>